<?xml version="1.0" ?><svg viewBox="0 0 512 512" xmlns="http://www.w3.org/2000/svg"><g id="Online_class_group_session"><path d="M245.5737,359.8724a16.564,16.564,0,1,0,16.5635,16.5639A16.5828,16.5828,0,0,0,245.5737,359.8724Zm0,23.1279a6.564,6.564,0,1,1,6.5635-6.564A6.5715,6.5715,0,0,1,245.5737,383Z"/><path d="M280.355,245.1224a4.5,4.5,0,0,0,5.9482-4.26V213.5594a4.5,4.5,0,0,0-5.9482-4.26l-14.5488,4.9468v-5.6152a4.5,4.5,0,0,0-4.5-4.5H225.1323a11.7,11.7,0,0,0-11.6865,11.687v22.3452a11.7,11.7,0,0,0,11.6865,11.687h36.1739a4.5,4.5,0,0,0,4.5-4.5v-5.1747ZM265.9282,223.71l11.375-3.8677v14.7363l-11.375-3.8677Zm-9.122,17.14H225.1323a2.69,2.69,0,0,1-2.6865-2.687V215.8177a2.69,2.69,0,0,1,2.6865-2.687h31.6739Z"/><path d="M132.9111,89.5687a4.5121,4.5121,0,0,0,2.8311-.9952c.499-.4008,12.4941-9.748,35.0625-3.8188a4.5,4.5,0,1,0,2.2871-8.7041c-27.2891-7.1748-42.4365,5.0493-43.0684,5.5727a4.4943,4.4943,0,0,0,2.8877,7.9454Z"/><path d="M132.9111,110.0447a4.512,4.512,0,0,0,2.8311-.9951c.499-.4014,12.4941-9.7485,35.0625-3.8188a4.5,4.5,0,1,0,2.2871-8.7041c-27.2891-7.1758-42.4365,5.0488-43.0684,5.5727a4.4942,4.4942,0,0,0,2.8877,7.9453Z"/><path d="M132.9111,131.4744a4.5126,4.5126,0,0,0,2.8311-.9951c.499-.4014,12.4941-9.749,35.0625-3.8188a4.5,4.5,0,1,0,2.2871-8.7041c-27.2891-7.1748-42.4365,5.0493-43.0684,5.5727a4.4942,4.4942,0,0,0,2.8877,7.9453Z"/><path d="M52.458,84.7547c22.5166-5.918,34.5107,3.3769,35.06,3.8159a4.5,4.5,0,0,0,5.7217-6.9473c-.6319-.5234-15.7813-12.748-43.0684-5.5727a4.5,4.5,0,1,0,2.2871,8.7041Z"/><path d="M52.458,105.2308c22.5039-5.9151,34.4971,3.3662,35.0586,3.8149a4.5,4.5,0,0,0,5.7227-6.9463c-.6319-.5234-15.7813-12.7475-43.0684-5.5727a4.5,4.5,0,1,0,2.2871,8.7041Z"/><path d="M52.458,126.6605c22.5039-5.9151,34.4971,3.3662,35.0586,3.8149a4.5,4.5,0,0,0,5.7227-6.9463c-.6319-.5239-15.7813-12.7471-43.0684-5.5727a4.5,4.5,0,1,0,2.2871,8.7041Z"/><path d="M489.8833,84.41h-6.82a31.2071,31.2071,0,0,0-31-28.0067h-236.09v-19.71a12.9633,12.9633,0,0,0-11.27-12.81c-1.3357-.1713-4.6575-.2828-7.7432-.3313a9.1322,9.1322,0,0,0-7.5971-8.3206c-16.084-2.7193-55.5371-6.4893-74.4541,17.207a3.7614,3.7614,0,0,1-5.9336,0C90.0625,8.7405,50.6094,12.5091,34.5244,15.2308a9.1312,9.1312,0,0,0-7.5981,8.3263c-3.148.0514-6.46.1611-7.7427.3256a12.9489,12.9489,0,0,0-11.27,12.81v119.29c0,.062.0085.123.01.1849V342.9253c0,.0126-.0037.0243-.0037.0369s.0035.0243.0037.0369v40.6437a31.2,31.2,0,0,0,31.16,31.17H208.2l-10.1257,73.9767h-23.991a5,5,0,1,0,0,10H318.96a5,5,0,1,0,0-10h-23.992l-10.1247-73.9767h167.22a31.2,31.2,0,0,0,31.16-31.17V343.0107c0-.0166.0049-.0319.0049-.0485s-.0049-.0319-.0049-.0484V154.9163h6.66a14.219,14.219,0,0,0,14.2031-14.2031V98.6126A14.219,14.219,0,0,0,489.8833,84.41Zm-281.7148,404.38,10.125-73.9742H274.75l10.125,73.9742ZM452.063,66.4028A21.178,21.178,0,0,1,472.96,84.41H429.2153a14.219,14.219,0,0,0-14.2031,14.2031v6.95H215.9734v-39.16Zm-330.12-28.35C138.3223,17.534,176.5391,22.19,187.8613,24.1048a.1652.1652,0,0,1,.1309.1645V141.0428a.1405.1405,0,0,1-.0518.1177.1656.1656,0,0,1-.1435.0468c-39.272-3.4992-61.0222,7.6491-71.3535,15.761V42.056A12.811,12.811,0,0,0,121.9434,38.0525ZM35.8945,24.2693a.1643.1643,0,0,1,.1309-.1645c11.3232-1.916,49.54-6.57,65.917,13.9477a12.8134,12.8134,0,0,0,5.501,4.0039V156.97c-8.9908-7.0613-26.6265-16.4248-56.9444-16.4248-4.5156,0-9.3183.208-14.4092.6626a.1728.1728,0,0,1-.1435-.0473.1405.1405,0,0,1-.0518-.1177ZM16.9136,36.6927a3.9243,3.9243,0,0,1,3.42-3.88c.989-.1283,3.7881-.2133,6.561-.2528V141.0428a9.1711,9.1711,0,0,0,9.9961,9.1289c38.7588-3.4541,58.4287,8.0889,66.6992,15.2807a12.7882,12.7882,0,0,0,16.7061,0c8.2725-7.1918,27.9385-18.7368,66.7-15.2807a9.1711,9.1711,0,0,0,9.9961-9.1289V32.5355c.8364-.0018,1.4824-.0027,1.6413-.0027a37.9092,37.9092,0,0,1,4.92.28,3.9244,3.9244,0,0,1,3.42,3.88v119.29a3.9159,3.9159,0,0,1-4.15,3.9c-43.81-2.85-68.69,8.2-81.87,17.98a15.2136,15.2136,0,0,1-18.02,0c-11.74-8.71-32.77-18.44-68.2-18.44q-6.51,0-13.67.46a3.8174,3.8174,0,0,1-2.91-1.05,3.8682,3.8682,0,0,1-1.24-2.85Zm160.3081,194.44A48.058,48.058,0,0,0,225.02,274.8421h16.7132v63.12H159.0354v-10.483a27.6666,27.6666,0,0,0-16.76-25.8,11.658,11.658,0,0,1-2.4-1.36,6.6238,6.6238,0,0,1-2.7-4.76,7.65,7.65,0,0,1,2.06-5.94,24.0473,24.0473,0,1,0-35.39-.07,7.9258,7.9258,0,0,1,2.05,6.59,6.7618,6.7618,0,0,1-3.4,4.93,11.6048,11.6048,0,0,1-1.28.62,27.4124,27.4124,0,0,0-16.72,25.62v10.6529H17.9231V231.1327ZM225.02,265.8421a39.0008,39.0008,0,0,1,0-78.0015h41.73a39.0008,39.0008,0,1,1,0,78.0015ZM111.2153,282.7892a14.046,14.046,0,1,1,20.68.04,17.6733,17.6733,0,0,0-4.67,13.69,16.4742,16.4742,0,0,0,6.75,11.88,22.1975,22.1975,0,0,0,4.45,2.51,17.9172,17.9172,0,0,1,10.61,16.57v10.483h-54.54V327.3093a17.663,17.663,0,0,1,10.53-16.37,21.267,21.267,0,0,0,2.4-1.17,16.7731,16.7731,0,0,0,8.35-12.07A17.8634,17.8634,0,0,0,111.2153,282.7892ZM452.063,404.8127H39.083a21.183,21.183,0,0,1-21.16-21.17V347.9622H404.3755a5.0018,5.0018,0,0,0,5-5v-15.49a27.6672,27.6672,0,0,0-16.76-25.8,11.61,11.61,0,0,1-2.4-1.35,6.6446,6.6446,0,0,1-2.7-4.77,7.6573,7.6573,0,0,1,2.05-5.93,24.0468,24.0468,0,1,0-35.38-.08,7.9456,7.9456,0,0,1,2.05,6.6,6.78,6.78,0,0,1-3.4,4.93,11.6294,11.6294,0,0,1-1.28.62,27.3886,27.3886,0,0,0-16.72,25.61v10.66H250.7332v-63.12H266.75a48.0589,48.0589,0,0,0,47.7991-43.7094H473.2231v106.83h-48.74a5,5,0,0,0,0,10h48.74v35.6806A21.183,21.183,0,0,1,452.063,404.8127ZM361.5454,282.7822a14.046,14.046,0,1,1,20.68.04,17.729,17.729,0,0,0-4.66,13.69,16.456,16.456,0,0,0,6.75,11.88,21.7223,21.7223,0,0,0,4.45,2.51,17.917,17.917,0,0,1,10.61,16.57v10.49h-54.54v-10.66a17.6732,17.6732,0,0,1,10.53-16.37,21.2062,21.2062,0,0,0,2.4-1.16,16.7988,16.7988,0,0,0,8.34-12.07A17.8216,17.8216,0,0,0,361.5454,282.7822Zm0-117.6894a14.0461,14.0461,0,1,1,20.68.04,17.7386,17.7386,0,0,0-4.66,13.7,16.4548,16.4548,0,0,0,6.75,11.87,21.2687,21.2687,0,0,0,4.45,2.51,17.9276,17.9276,0,0,1,10.61,16.57v12.35h-54.54v-12.52a17.659,17.659,0,0,1,10.53-16.36,23.1112,23.1112,0,0,0,2.4-1.17,16.7986,16.7986,0,0,0,8.34-12.07A17.8214,17.8214,0,0,0,361.5454,165.0928Zm111.6777,57.04H409.3755v-12.35a27.6672,27.6672,0,0,0-16.76-25.8,11.61,11.61,0,0,1-2.4-1.35,6.6446,6.6446,0,0,1-2.7-4.77,7.6573,7.6573,0,0,1,2.05-5.93,24.0468,24.0468,0,1,0-35.38-.08,7.9458,7.9458,0,0,1,2.05,6.6,6.7613,6.7613,0,0,1-3.4,4.93,11.6294,11.6294,0,0,1-1.28.62,27.3886,27.3886,0,0,0-16.72,25.61v12.52H314.5168A48.0657,48.0657,0,0,0,266.75,178.8406H225.02a48.0642,48.0642,0,0,0-47.7663,43.2921H17.9231V168.5444a12.9871,12.9871,0,0,0,3.73.3183c41.06-2.68,63.95,7.35,75.91,16.23a23.98,23.98,0,0,0,28.76,0c11.96-8.88,34.83-18.91,75.91-16.23a12.9162,12.9162,0,0,0,13.74-12.88v-40.42H407.2678L398.2,126.8441a5,5,0,0,0,3.8975,8.1323h14.8652v5.7368a14.219,14.219,0,0,0,14.2031,14.2031h42.0576Zm20.8633-81.4195a4.2081,4.2081,0,0,1-4.2031,4.2031H431.1655a4.2081,4.2081,0,0,1-4.2031-4.2031V129.9764a5,5,0,0,0-5-5h-9.4307l11.378-14.1553a4.9988,4.9988,0,0,0,1.1025-3.1323V98.6126a4.2081,4.2081,0,0,1,4.2031-4.2031h60.668a4.2081,4.2081,0,0,1,4.2031,4.2031Z"/></g></svg>